<svg id="学生领取礼品名单" xmlns="http://www.w3.org/2000/svg" xmlns:xlink="http://www.w3.org/1999/xlink" width="574" height="459" viewBox="0 0 574 459">
  <metadata><?xpacket begin="﻿" id="W5M0MpCehiHzreSzNTczkc9d"?>
<x:xmpmeta xmlns:x="adobe:ns:meta/" x:xmptk="Adobe XMP Core 5.6-c138 79.159824, 2016/09/14-01:09:01        ">
   <rdf:RDF xmlns:rdf="http://www.w3.org/1999/02/22-rdf-syntax-ns#">
      <rdf:Description rdf:about=""/>
   </rdf:RDF>
</x:xmpmeta>
                                                                                                    
                                                                                                    
                                                                                                    
                                                                                                    
                                                                                                    
                                                                                                    
                                                                                                    
                                                                                                    
                                                                                                    
                                                                                                    
                                                                                                    
                                                                                                    
                                                                                                    
                                                                                                    
                                                                                                    
                                                                                                    
                                                                                                    
                                                                                                    
                                                                                                    
                                                                                                    
                           
<?xpacket end="w"?></metadata>
<defs>
    <style>
      .cls-1, .cls-4 {
        fill: #0d97f9;
      }

      .cls-1, .cls-2 {
        fill-rule: evenodd;
      }

      .cls-1 {
        opacity: 0.52;
      }

      .cls-2 {
        fill: #d9efff;
        filter: url(#filter);
      }

      .cls-3 {
        fill: #5bb8fb;
      }

      .cls-4 {
        filter: url(#filter-2);
      }

      .cls-5 {
        fill: #ffde29;
      }
    </style>
    <filter id="filter" x="64" y="132" width="514" height="418" filterUnits="userSpaceOnUse">
      <feGaussianBlur result="blur" stdDeviation="6.557" in="SourceAlpha"/>
      <feFlood result="flood" flood-color="#367f7c" flood-opacity="0.15"/>
      <feComposite result="composite" operator="out" in2="blur"/>
      <feOffset result="offset"/>
      <feComposite result="composite-2" operator="in" in2="SourceAlpha"/>
      <feBlend result="blend" in2="SourceGraphic"/>
    </filter>
    <filter id="filter-2" x="63" y="7" width="448" height="54" filterUnits="userSpaceOnUse">
      <feOffset result="offset" dy="1" in="SourceAlpha"/>
      <feGaussianBlur result="blur"/>
      <feFlood result="flood" flood-color="#fff" flood-opacity="0.3"/>
      <feComposite result="composite" operator="in" in2="blur"/>
      <feBlend result="blend" in="SourceGraphic"/>
      <feGaussianBlur result="blur-2" in="SourceAlpha"/>
      <feFlood result="flood-2" flood-color="#070002" flood-opacity="0.3"/>
      <feComposite result="composite-2" operator="out" in2="blur-2"/>
      <feOffset result="offset-2" dy="1"/>
      <feComposite result="composite-3" operator="in" in2="SourceAlpha"/>
      <feBlend result="blend-2" mode="overlay" in2="blend"/>
    </filter>
  </defs>
  <path id="矩形_12_拷贝_2" data-name="矩形 12 拷贝 2" class="cls-1" d="M62.5,131h517s-6.493,119.892-5.34,197c1.54,103.073,8.34,221,8.34,221H59s7-117.287,8.27-221.009C68.2,252.149,62.5,131,62.5,131ZM77,534.03L66.354,552.47H87.646Zm21,0L87.354,552.47h21.292Zm128,0-10.646,18.44h21.292Zm-64,0-10.646,18.44h21.292Zm21,0-10.646,18.44h21.292Zm22,0-10.646,18.44h21.292Zm63,0-10.646,18.44h21.292Zm-21,0-10.646,18.44h21.292Zm64,0-10.646,18.44h21.292Zm-21,0-10.646,18.44h21.292Zm63,0-10.646,18.44h21.292Zm-21,0-10.646,18.44h21.292Zm64,0-10.646,18.44h21.292Zm-21,0-10.646,18.44h21.292Zm64,0-10.646,18.44h21.292Zm-21,0-10.646,18.44h21.292Zm64,0-10.646,18.44h21.292Zm-21,0-10.646,18.44h21.292Zm63,0-10.646,18.44h21.292Zm-21,0-10.646,18.44h21.292Zm64,0-10.646,18.44h21.292Zm-21,0-10.646,18.44h21.292Zm-406,0-10.646,18.44h21.292Zm-21,0-10.646,18.44h21.292ZM577,549H59m508-14.97-10.646,18.44h21.292Z" transform="translate(-34 -91)"/>
  <path id="矩形_12" data-name="矩形 12" class="cls-2" d="M64,132H578V550H64V132ZM76,535.03L65.354,553.47H86.646Zm21,0L86.354,553.47h21.292Zm128,0-10.646,18.44h21.292Zm-64,0-10.646,18.44h21.292Zm21,0-10.646,18.44h21.292Zm22,0-10.646,18.44h21.292Zm63,0-10.646,18.44h21.292Zm-21,0-10.646,18.44h21.292Zm64,0-10.646,18.44h21.292Zm-21,0-10.646,18.44h21.292Zm63,0-10.646,18.44h21.292Zm-21,0-10.646,18.44h21.292Zm64,0-10.646,18.44h21.292Zm-21,0-10.646,18.44h21.292Zm64,0-10.646,18.44h21.292Zm-21,0-10.646,18.44h21.292Zm64,0-10.646,18.44h21.292Zm-21,0-10.646,18.44h21.292Zm63,0-10.646,18.44h21.292Zm-21,0-10.646,18.44h21.292Zm64,0-10.646,18.44h21.292Zm-21,0-10.646,18.44h21.292Zm-406,0-10.646,18.44h21.292Zm-21,0-10.646,18.44h21.292ZM576,550H64m502-14.97-10.646,18.44h21.292Z" transform="translate(-34 -91)"/>
  <rect id="圆角矩形_10" data-name="圆角矩形 10" class="cls-3" width="574" height="67" rx="28.5" ry="28.5"/>
  <rect id="圆角矩形_11" data-name="圆角矩形 11" class="cls-4" x="63" y="7" width="448" height="53" rx="21.5" ry="21.5"/>
  <circle id="椭圆_5" data-name="椭圆 5" class="cls-5" cx="543" cy="34" r="11"/>
  <circle id="椭圆_5_拷贝" data-name="椭圆 5 拷贝" class="cls-5" cx="31" cy="34" r="11"/>
</svg>
