<svg xmlns="http://www.w3.org/2000/svg" xmlns:xlink="http://www.w3.org/1999/xlink" width="625" height="1" viewBox="0 0 625 1">
  <metadata><?xpacket begin="﻿" id="W5M0MpCehiHzreSzNTczkc9d"?>
<x:xmpmeta xmlns:x="adobe:ns:meta/" x:xmptk="Adobe XMP Core 5.6-c138 79.159824, 2016/09/14-01:09:01        ">
   <rdf:RDF xmlns:rdf="http://www.w3.org/1999/02/22-rdf-syntax-ns#">
      <rdf:Description rdf:about=""
            xmlns:xmp="http://ns.adobe.com/xap/1.0/">
         <xmp:CreatorTool>Adobe Photoshop CS5 Windows</xmp:CreatorTool>
      </rdf:Description>
   </rdf:RDF>
</x:xmpmeta>
                                                                                                    
                                                                                                    
                                                                                                    
                                                                                                    
                                                                                                    
                                                                                                    
                                                                                                    
                                                                                                    
                                                                                                    
                                                                                                    
                                                                                                    
                                                                                                    
                                                                                                    
                                                                                                    
                                                                                                    
                                                                                                    
                                                                                                    
                                                                                                    
                                                                                                    
                                                                                                    
                           
<?xpacket end="w"?></metadata>
<defs>
    <style>
      .cls-1 {
        fill: #0d97f9;
        fill-rule: evenodd;
        filter: url(#filter);
      }
    </style>
    <clipPath id="clip-path">
      <rect x="-5" y="-269" width="640" height="1136"/>
    </clipPath>
    <filter id="filter" x="-41" y="269" width="676" height="1" filterUnits="userSpaceOnUse">
      <feFlood result="flood" flood-color="#73c3fc"/>
      <feComposite result="composite" operator="in" in2="SourceGraphic"/>
      <feBlend result="blend" in2="SourceGraphic"/>
    </filter>
  </defs>
  <g clip-path="url(#clip-path)">
    <path id="形状_1_拷贝_12" data-name="形状 1 拷贝 12" class="cls-1" d="M-41,270v-1h13v1H-41Zm23,0v-1H-5v1H-18Zm23,0v-1H18v1H5Zm22,0v-1H40v1H27Zm23,0v-1H63v1H50Zm23,0v-1H86v1H73Zm23,0v-1h13v1H96Zm23,0v-1h13v1H119Zm22,0v-1h13v1H141Zm23,0v-1h13v1H164Zm23,0v-1h13v1H187Zm275,0v-1h13v1H462Zm23,0v-1h13v1H485Zm23,0v-1h13v1H508Zm22,0v-1h13v1H530Zm23,0v-1h13v1H553Zm23,0v-1h13v1H576Zm23,0v-1h13v1H599Zm23,0v-1h13v1H622Zm-411,0v-1h13v1H211Zm23,0v-1h13v1H234Zm23,0v-1h13v1H257Zm22,0v-1h13v1H279Zm23,0v-1h13v1H302Zm23,0v-1h13v1H325Zm23,0v-1h13v1H348Zm23,0v-1h13v1H371Zm22,0v-1h13v1H393Zm23,0v-1h13v1H416Zm23,0v-1h13v1H439Z" transform="translate(-5 -269)"/>
  </g>
</svg>
